<svg width="1250" height="500" viewBox="0 0 1250 500" fill="none" xmlns="http://www.w3.org/2000/svg">
<path d="M500 250C500 388.071 388.071 500 250 500C111.929 500 0 388.071 0 250C0 111.929 111.929 9.15527e-05 250 9.15527e-05C388.071 9.15527e-05 500 111.929 500 250Z" fill="#013158"/>
<path d="M843.121 155.768L778.078 39.245L907.982 38.9231L843.121 155.768Z" fill="#013158"/>
<path d="M969.985 155.765L904.942 39.2414L1034.85 38.9196L969.985 155.765Z" fill="#013158"/>
<path d="M1096.98 155.768L1031.94 39.245L1161.85 38.9231L1096.98 155.768Z" fill="#013158"/>
<circle cx="1200" cy="262" r="50" fill="#013158" fill-opacity="0.1"/>
<circle cx="585" cy="156" r="25" fill="#013158" fill-opacity="0.1"/>
</svg>
