<svg width="1374" height="500" viewBox="0 0 1374 500" fill="none" xmlns="http://www.w3.org/2000/svg">
<circle cx="75" cy="313" r="75" fill="#013158" fill-opacity="0.1"/>
<circle cx="515" cy="214" r="50" fill="#013158" fill-opacity="0.1"/>
<circle cx="602" cy="268" r="25" fill="#013158" fill-opacity="0.1"/>
<path d="M766 250C766 388.071 877.929 500 1016 500C1154.07 500 1266 388.071 1266 250C1266 111.929 1154.07 0 1016 0C877.929 0 766 111.929 766 250Z" fill="#013158"/>
<path d="M1374 442.341C1354.89 439.892 1336.37 436.515 1316.67 434.993C1264.85 430.99 1244.2 433.512 1192.86 437.317C1153.33 440.247 1126.16 444.806 1086.04 442.191C1050.91 439.9 1044.84 434.576 1013.96 429.295C978.667 423.258 960.623 426.922 930.303 434.693C892.69 444.334 873.618 446.518 838.052 434.093C822.046 428.502 803.447 417.086 777.922 419.173C743.671 421.975 713.827 437.252 683.617 443.99C629.902 455.972 599.463 429.335 574 414" stroke="#F2B3B3" stroke-width="3" stroke-linecap="round"/>
</svg>
