<svg width="450" height="746" viewBox="0 0 450 746" fill="none" xmlns="http://www.w3.org/2000/svg">
<g clip-path="url(#clip0_4_2)">
<rect width="450" height="746" fill="white"/>
<path d="M213.186 215.146C212.914 301.112 143.119 370.581 57.2945 370.31C-28.53 370.038 -97.8838 300.128 -97.6116 214.161C-97.3394 128.195 -27.5443 58.7257 58.2802 58.9974C144.105 59.2692 213.459 129.179 213.186 215.146Z" fill="#013158" fill-opacity="0.1"/>
<path d="M383.869 316.332L434.512 287.259L434.327 345.726L383.869 316.332Z" fill="#013158" fill-opacity="0.1"/>
<path d="M383.655 383.846L434.299 354.772L434.114 413.24L383.655 383.846Z" fill="#013158" fill-opacity="0.1"/>
<path d="M383.442 451.359L434.085 422.286L433.9 480.753L383.442 451.359Z" fill="#013158" fill-opacity="0.1"/>
<line x1="23.4288" y1="19.8813" x2="432.833" y2="21.1776" stroke="#013158" stroke-width="3"/>
<line x1="23.4252" y1="721.271" x2="432.83" y2="722.568" stroke="#013158" stroke-width="3"/>
<path d="M311.312 313.753C311.307 315.225 312.497 316.423 313.97 316.428C315.443 316.432 316.64 315.242 316.645 313.77C316.65 312.297 315.459 311.099 313.987 311.094C312.514 311.09 311.316 312.28 311.312 313.753ZM1.86424 313.268C58.0958 320.96 105.024 310.932 153.374 304.136C201.732 297.339 251.583 293.757 313.822 314.236L314.134 313.286C251.684 292.737 201.656 296.34 153.235 303.146C104.807 309.953 58.0573 319.945 1.99976 312.278L1.86424 313.268Z" fill="#013158"/>
<path d="M450.165 665.791C442.125 662.703 434.336 658.457 426.044 656.528C404.23 651.454 395.52 654.58 373.878 659.269C357.214 662.88 345.749 668.543 328.861 665.22C314.069 662.309 311.532 655.644 298.547 649C283.702 641.405 276.086 645.962 263.282 655.638C247.4 667.641 239.357 670.347 224.423 654.765C217.702 647.752 209.913 633.455 199.152 636.031C184.712 639.487 172.08 658.548 159.326 666.932C136.651 681.841 123.934 648.498 113.268 629.291" stroke="#013158" stroke-linecap="round"/>
<ellipse cx="78.2071" cy="664.187" rx="21.219" ry="21.2541" transform="rotate(0.181418 78.2071 664.187)" fill="#013158" fill-opacity="0.1"/>
</g>
<defs>
<clipPath id="clip0_4_2">
<rect width="450" height="746" fill="white"/>
</clipPath>
</defs>
</svg>
