<svg width="1407" height="856" viewBox="0 0 1407 856" fill="none" xmlns="http://www.w3.org/2000/svg">
<rect width="1407" height="856" fill="white"/>
<path d="M579 290C579 428.071 467.071 540 329 540C190.929 540 79 428.071 79 290C79 151.929 190.929 40.0001 329 40.0001C467.071 40.0001 579 151.929 579 290Z" fill="#013158"/>
<path d="M922.121 195.768L857.078 79.2449L986.982 78.923L922.121 195.768Z" fill="#013158"/>
<path d="M1048.99 195.765L983.942 79.2414L1113.85 78.9196L1048.99 195.765Z" fill="#013158"/>
<path d="M1175.99 195.768L1110.94 79.2449L1240.85 78.923L1175.99 195.768Z" fill="#013158"/>
<circle cx="108" cy="707" r="75" fill="#013158" fill-opacity="0.1"/>
<circle cx="548" cy="608" r="50" fill="#013158" fill-opacity="0.1"/>
<circle cx="1279" cy="302" r="50" fill="#013158" fill-opacity="0.1"/>
<circle cx="635" cy="662" r="25" fill="#013158" fill-opacity="0.1"/>
<circle cx="664" cy="196" r="25" fill="#013158" fill-opacity="0.1"/>
</svg>
