<svg width="767" height="1302" viewBox="0 0 767 1302" fill="none" xmlns="http://www.w3.org/2000/svg">
<g clip-path="url(#clip0_4_2)">
<rect width="767" height="1302" fill="white"/>
<path d="M362.634 383.629C362.172 529.583 243.477 647.528 97.5224 647.066C-48.4324 646.604 -166.377 527.91 -165.915 381.955C-165.453 236 -46.7588 118.055 99.196 118.517C245.151 118.979 363.096 237.674 362.634 383.629Z" fill="#013158" fill-opacity="0.1"/>
<path d="M652.901 555.426L739.027 506.064L738.712 605.332L652.901 555.426Z" fill="#013158" fill-opacity="0.1"/>
<path d="M652.538 670.051L738.664 620.689L738.349 719.957L652.538 670.051Z" fill="#013158" fill-opacity="0.1"/>
<path d="M652.175 784.676L738.301 735.314L737.986 834.582L652.175 784.676Z" fill="#013158" fill-opacity="0.1"/>
<line x1="41.0286" y1="53.152" x2="737.27" y2="55.3565" stroke="#013158" stroke-width="3"/>
<line x1="37.2578" y1="1243.98" x2="733.499" y2="1246.18" stroke="#013158" stroke-width="3"/>
<path d="M531.376 551.051C531.372 552.524 532.562 553.722 534.034 553.727C535.507 553.731 536.705 552.541 536.71 551.068C536.714 549.596 535.524 548.398 534.051 548.393C532.579 548.389 531.381 549.579 531.376 551.051ZM3.30352 549.875C98.871 562.926 178.615 545.913 260.868 534.372C343.128 522.829 427.967 516.74 533.887 551.535L534.199 550.585C428.068 515.721 343.052 521.83 260.729 533.381C178.399 544.934 98.8325 561.911 3.43882 548.884L3.30352 549.875Z" fill="#013158"/>
<path d="M765.648 1148.74C751.974 1143.5 738.728 1136.29 724.626 1133.01C687.529 1124.4 672.718 1129.71 635.913 1137.67C607.574 1143.8 588.075 1153.41 559.356 1147.77C534.2 1142.83 529.886 1131.51 507.803 1120.23C482.557 1107.34 469.606 1115.07 447.832 1131.5C420.821 1151.88 407.143 1156.47 381.747 1130.02C370.317 1118.11 357.07 1093.84 338.769 1098.21C314.213 1104.08 292.73 1136.44 271.042 1150.68C232.479 1175.99 210.852 1119.38 192.713 1086.77" stroke="#013158" stroke-linecap="round"/>
<circle cx="133.09" cy="1146.02" r="36.0858" transform="rotate(0.181418 133.09 1146.02)" fill="#013158" fill-opacity="0.1"/>
</g>
<defs>
<clipPath id="clip0_4_2">
<rect width="767" height="1302" fill="white"/>
</clipPath>
</defs>
</svg>
