<svg width="254" height="100" viewBox="0 0 254 100" fill="none" xmlns="http://www.w3.org/2000/svg">
<rect width="254" height="100" fill="white"/>
<path d="M229 53.035C224.772 51.4765 220.674 49.3278 216.316 48.3593C204.851 45.8116 200.282 47.4168 188.923 49.8384C180.177 51.7029 174.165 54.6039 165.29 52.9396C157.516 51.4818 156.173 48.0939 149.342 44.7332C141.532 40.8912 137.54 43.2231 130.832 48.1684C122.51 54.3032 118.291 55.6936 110.422 47.7868C106.88 44.2282 102.765 36.9636 97.1177 38.2921C89.5396 40.0747 82.9368 49.7966 76.2528 54.0847C64.3682 61.7092 57.6338 44.7587 52 35" stroke="#013158" stroke-linecap="round"/>
<circle cx="33" cy="53" r="11" fill="#013158" fill-opacity="0.1"/>
</svg>
