<svg width="767" height="708" viewBox="0 0 767 708" fill="none" xmlns="http://www.w3.org/2000/svg">
<g clip-path="url(#clip0_4_30)">
<rect width="767" height="708" fill="white"/>
<path d="M315.968 261.931C315.968 376.328 223.232 469.064 108.836 469.064C-5.56074 469.064 -98.2972 376.328 -98.2972 261.931C-98.2972 147.535 -5.56074 54.7985 108.836 54.7985C223.232 54.7985 315.968 147.535 315.968 261.931Z" fill="#013158" fill-opacity="0.1"/>
<path d="M433.58 150.911L381.618 57.8226L485.396 57.5654L433.58 150.911Z" fill="#013158" fill-opacity="0.1"/>
<path d="M556.195 150.674L504.233 57.5857L608.011 57.3286L556.195 150.674Z" fill="#013158" fill-opacity="0.1"/>
<path d="M678.809 150.438L626.848 57.3493L730.626 57.0922L678.809 150.438Z" fill="#013158" fill-opacity="0.1"/>
<path d="M426.734 474.603C426.734 588.999 519.471 681.736 633.867 681.736C748.264 681.736 841 588.999 841 474.603C841 360.207 748.264 267.47 633.867 267.47C519.471 267.47 426.734 360.207 426.734 474.603Z" fill="#013158" fill-opacity="0.1"/>
<path d="M770.11 633.754C755.822 628.328 741.974 620.848 727.246 617.476C688.502 608.607 673.062 614.195 634.677 622.625C605.122 629.116 584.804 639.215 554.814 633.422C528.544 628.347 524.004 616.552 500.92 604.853C474.53 591.478 461.039 599.596 438.369 616.812C410.248 638.168 395.988 643.009 369.397 615.483C357.429 603.095 343.523 577.806 324.439 582.43C298.83 588.636 276.517 622.48 253.93 637.408C213.768 663.951 191.01 604.942 171.972 570.97" stroke="#013158" stroke-linecap="round"/>
</g>
<defs>
<clipPath id="clip0_4_30">
<rect width="767" height="708" fill="white"/>
</clipPath>
</defs>
</svg>
