<svg width="1440" height="904" viewBox="0 0 1440 904" fill="none" xmlns="http://www.w3.org/2000/svg">
<g clip-path="url(#clip0_4_3)">
<rect width="1440" height="904" fill="white"/>
<path d="M366 366C366 504.071 254.071 616 116 616C-22.0712 616 -134 504.071 -134 366C-134 227.929 -22.0712 116 116 116C254.071 116 366 227.929 366 366Z" fill="#013158" fill-opacity="0.1"/>
<path d="M1297 166.5L1371.25 123.632V209.368L1297 166.5Z" fill="#013158" fill-opacity="0.1"/>
<path d="M1297 265.5L1371.25 222.632V308.368L1297 265.5Z" fill="#013158" fill-opacity="0.1"/>
<path d="M1297 364.5L1371.25 321.632V407.368L1297 364.5Z" fill="#013158" fill-opacity="0.1"/>
<line x1="440" y1="848.5" x2="1440" y2="848.5" stroke="#013158" stroke-width="3"/>
<path d="M692 406.121C692 410.539 695.582 414.121 700 414.121C704.418 414.121 708 410.539 708 406.121C708 401.702 704.418 398.121 700 398.121C695.582 398.121 692 401.702 692 406.121ZM-0.0713479 407.619C126.022 413.623 231.118 405.492 339.577 399.931C448.044 394.37 559.948 391.375 699.827 407.611L700.173 404.631C560.052 388.367 447.956 391.371 339.423 396.935C230.882 402.5 125.978 410.618 0.0713479 404.622L-0.0713479 407.619Z" fill="#013158"/>
<path d="M1440 745.341C1423.28 742.892 1407.07 739.515 1389.84 737.993C1344.49 733.99 1326.42 736.512 1281.5 740.317C1246.91 743.247 1223.14 747.806 1188.04 745.191C1157.3 742.9 1151.98 737.576 1124.97 732.295C1094.08 726.258 1078.3 729.922 1051.76 737.693C1018.85 747.334 1002.17 749.518 971.046 737.093C957.04 731.502 940.766 720.086 918.431 722.173C888.462 724.975 862.349 740.252 835.915 746.99C788.914 758.972 762.28 732.335 740 717" stroke="#013158" stroke-width="3" stroke-linecap="round"/>
<circle cx="520" cy="632" r="75" fill="#013158" fill-opacity="0.1"/>
<circle cx="924" cy="212" r="50" fill="#013158" fill-opacity="0.1"/>
<circle cx="1011" cy="266" r="25" fill="#013158" fill-opacity="0.1"/>
<line x1="-134" y1="52.5" x2="866" y2="52.5" stroke="#013158" stroke-width="3"/>
</g>
<defs>
<clipPath id="clip0_4_3">
<rect width="1440" height="904" fill="white"/>
</clipPath>
</defs>
</svg>
