<svg width="886" height="685" viewBox="0 0 886 685" fill="none" xmlns="http://www.w3.org/2000/svg">
<g clip-path="url(#clip0_1_52)">
<rect width="886" height="685" fill="white"/>
<path d="M278 343C278 481.071 389.929 593 528 593C666.071 593 778 481.071 778 343C778 204.929 666.071 93 528 93C389.929 93 278 204.929 278 343Z" fill="#013158"/>
<path d="M886 535.341C866.89 532.892 848.369 529.515 828.67 527.993C776.85 523.99 756.2 526.512 704.861 530.317C665.331 533.247 638.157 537.806 598.045 535.191C562.909 532.9 556.837 527.576 525.963 522.295C490.667 516.258 472.623 519.922 442.303 527.693C404.69 537.334 385.618 539.518 350.052 527.093C334.046 521.502 315.447 510.086 289.922 512.173C255.671 514.975 225.827 530.252 195.617 536.99C141.902 548.972 111.463 522.335 86 507" stroke="#F2B3B3" stroke-width="3" stroke-linecap="round"/>
</g>
<defs>
<clipPath id="clip0_1_52">
<rect width="886" height="685" fill="white"/>
</clipPath>
</defs>
</svg>
