<svg width="289" height="173" viewBox="0 0 289 173" fill="none" xmlns="http://www.w3.org/2000/svg">
<g clip-path="url(#clip0_1_18)">
<rect width="289" height="173" fill="white"/>
<path d="M170 81.5C170 121.541 202.459 154 242.5 154C282.541 154 315 121.541 315 81.5C315 41.4594 282.541 9 242.5 9C202.459 9 170 41.4594 170 81.5Z" fill="#013158" fill-opacity="0.1"/>
<path d="M290 137.329C285.008 135.399 280.169 132.739 275.023 131.54C261.485 128.386 256.09 130.373 242.677 133.371C232.35 135.68 225.251 139.272 214.772 137.211C205.593 135.406 204.006 131.211 195.94 127.051C186.719 122.294 182.005 125.181 174.084 131.304C164.258 138.899 159.275 140.621 149.984 130.831C145.802 126.425 140.943 117.431 134.275 119.076C125.326 121.283 117.53 133.32 109.637 138.629C95.6043 148.069 87.6523 127.082 81 115" stroke="#013158" stroke-linecap="round"/>
</g>
<defs>
<clipPath id="clip0_1_18">
<rect width="289" height="173" fill="white"/>
</clipPath>
</defs>
</svg>
