<svg width="1440" height="777" viewBox="0 0 1440 777" fill="none" xmlns="http://www.w3.org/2000/svg">
<g clip-path="url(#clip0_1_31)">
<rect width="1440" height="777" fill="white"/>
<path d="M692 339.121C692 343.539 695.582 347.121 700 347.121C704.418 347.121 708 343.539 708 339.121C708 334.702 704.418 331.121 700 331.121C695.582 331.121 692 334.702 692 339.121ZM-0.0713479 340.619C126.022 346.623 231.118 338.492 339.577 332.931C448.044 327.37 559.948 324.375 699.827 340.611L700.173 337.631C560.052 321.367 447.956 324.371 339.423 329.935C230.882 335.5 125.978 343.618 0.0713479 337.622L-0.0713479 340.619Z" fill="#013158"/>
<path d="M1440 678.341C1423.28 675.892 1407.07 672.515 1389.84 670.993C1344.49 666.99 1326.42 669.512 1281.5 673.317C1246.91 676.247 1223.14 680.806 1188.04 678.191C1157.3 675.9 1151.98 670.576 1124.97 665.295C1094.08 659.258 1078.3 662.922 1051.76 670.693C1018.85 680.334 1002.17 682.518 971.046 670.093C957.04 664.502 940.766 653.086 918.431 655.173C888.462 657.975 862.349 673.252 835.915 679.99C788.914 691.972 762.28 665.335 740 650" stroke="#013158" stroke-width="3" stroke-linecap="round"/>
<circle cx="520" cy="565" r="75" fill="#013158" fill-opacity="0.1"/>
<circle cx="924" cy="145" r="50" fill="#013158" fill-opacity="0.1"/>
<circle cx="1011" cy="199" r="25" fill="#013158" fill-opacity="0.1"/>
</g>
<defs>
<clipPath id="clip0_1_31">
<rect width="1440" height="777" fill="white"/>
</clipPath>
</defs>
</svg>
