<svg width="219" height="215" viewBox="0 0 219 215" fill="none" xmlns="http://www.w3.org/2000/svg">
<g clip-path="url(#clip0_1_2)">
<rect width="219" height="215" fill="white"/>
<path d="M138 107C138 152.287 101.287 189 56 189C10.7126 189 -26 152.287 -26 107C-26 61.7126 10.7126 25 56 25C101.287 25 138 61.7126 138 107Z" fill="#013158" fill-opacity="0.1"/>
<path d="M188.333 158.516C188.333 159.989 189.527 161.183 191 161.183C192.473 161.183 193.667 159.989 193.667 158.516C193.667 157.043 192.473 155.849 191 155.849C189.527 155.849 188.333 157.043 188.333 158.516ZM26.9293 159.011C56.5423 163.24 81.2374 157.511 106.616 153.609C132.002 149.706 158.148 147.61 190.836 158.988L191.164 158.044C158.252 146.588 131.918 148.707 106.464 152.621C81.0026 156.535 56.4977 162.223 27.0707 158.021L26.9293 159.011Z" fill="#013158"/>
</g>
<defs>
<clipPath id="clip0_1_2">
<rect width="219" height="215" fill="white"/>
</clipPath>
</defs>
</svg>
